<svg width="24" height="24" viewBox="0 0 24 24" fill="none" xmlns="http://www.w3.org/2000/svg">
<g clip-path="url(#clip0_252_1231)">
<path d="M23.7288 19.9719L19.7553 19.9867C18.3896 20.0086 17.2381 19.3879 16.471 18.2578L13.6538 14.1078L13.9761 12.0544C14.1909 10.6859 15.4745 9.75052 16.8431 9.96531C17.5411 10.0749 18.1605 10.4737 18.5491 11.0639L18.913 11.6165L23.8899 19.6776C23.9459 19.7683 23.9178 19.8872 23.8271 19.9432C23.7975 19.9614 23.7636 19.9714 23.7288 19.9719Z" fill="url(#paint0_linear_252_1231)"/>
<path opacity="0.733817" d="M23.6778 19.9293L19.8375 19.9909C18.4719 20.0128 17.1871 19.3453 16.42 18.2152L13.6028 14.0652L13.9251 12.0118C14.1399 10.6433 15.4234 9.70793 16.792 9.92272C17.4901 10.0323 18.1095 10.4311 18.4981 11.0213L18.862 11.5739L23.8389 19.635C23.8949 19.7257 23.8668 19.8446 23.7761 19.9006C23.7465 19.9188 23.7126 19.9288 23.6778 19.9293Z" fill="url(#paint1_linear_252_1231)"/>
<path d="M18.9174 11.6437L19.2972 12.333C19.2398 12.1196 19.0203 11.9932 18.8069 12.0505C18.6718 12.0869 18.5655 12.1911 18.5265 12.3255L18.5217 12.3421C16.6021 15.7016 15.4226 17.7312 14.9834 18.4309C14.8197 18.6916 14.628 18.8762 14.4557 19.0767C14.0278 19.5674 13.4554 19.7789 13.0135 19.8718C11.8901 20.1078 10.5 18.4999 10.5 18.4999L9.99998 18.3107L12.7041 12.3143C13.3499 11.1083 13.9793 10.3369 14.5922 9.99992C15.3316 9.55498 16.5316 9.36409 17.5786 10.0368C18.1301 10.3618 18.5764 10.8975 18.9174 11.6437Z" fill="url(#paint2_linear_252_1231)"/>
<path fill-rule="evenodd" clip-rule="evenodd" d="M7.94961 7.80829C8.91074 7.7798 9.8206 8.23004 10.3814 9.00501L10.3845 9.00716L10.404 9.03677C10.4186 9.05756 10.433 9.07857 10.4471 9.09981L10.5178 9.20611C10.594 9.32081 10.6609 9.43986 10.7183 9.56219L13.1815 13.6897L14.5318 15.7812C15.0099 16.861 15.2028 17.6577 15.1105 18.1715C14.9268 18.6352 14.2706 20.28 11.8886 19.8975C11.1448 19.6972 10.5795 19.3214 10.1927 18.7699L8.28343 16.03L6.84482 18.4535C6.28854 19.3901 5.27982 19.9643 4.19047 19.9643H0.192952C0.0863874 19.9643 0 19.8779 0 19.7713C0 19.7396 0.00782389 19.7083 0.0227788 19.6804L5.58431 9.27416C6.05311 8.397 6.95547 7.83777 7.94961 7.80829Z" fill="url(#paint3_linear_252_1231)"/>
<path fill-rule="evenodd" clip-rule="evenodd" d="M7.99981 7.82985C8.93581 7.83931 9.81121 8.27571 10.3822 9.00616L10.3843 9.0071C10.3843 9.0071 10.3871 9.01183 10.3926 9.02116C10.4408 9.08202 10.4849 9.14381 10.5269 9.20748L10.5542 9.24892C10.6453 9.38721 10.7225 9.53193 10.7855 9.68111C11.2586 10.4754 12.154 11.9781 13.4707 14.1876C15.0404 16.2276 15.5075 17.7311 14.8718 18.6981C13.7051 20.3054 12.0599 19.9928 11.4197 19.7479C10.8296 19.5006 10.3553 19.0742 9.99679 18.4687L8.28644 16.0227L6.84471 18.4535C6.28842 19.3901 5.27971 19.9642 4.19035 19.9642H0.192952C0.0863874 19.9642 0 19.8778 0 19.7712C0 19.7395 0.00783392 19.7082 0.0228071 19.6802L5.60092 9.25083C6.07346 8.36732 6.99793 7.81972 7.99981 7.82985Z" fill="url(#paint4_linear_252_1231)"/>
<path d="M17 8C18.6569 8 20 6.65685 20 5C20 3.34315 18.6569 2 17 2C15.3431 2 14 3.34315 14 5C14 6.65685 15.3431 8 17 8Z" fill="url(#paint5_linear_252_1231)"/>
</g>
<defs>
<linearGradient id="paint0_linear_252_1231" x1="21.4007" y1="17.7184" x2="16.783" y2="17.8336" gradientUnits="userSpaceOnUse">
<stop stop-color="#6854EC"/>
<stop offset="1" stop-color="#4A39C1"/>
</linearGradient>
<linearGradient id="paint1_linear_252_1231" x1="21.6789" y1="18.1024" x2="17.6116" y2="18.1994" gradientUnits="userSpaceOnUse">
<stop stop-color="#3F18D2" stop-opacity="0"/>
<stop offset="1" stop-color="#1E0AA6"/>
</linearGradient>
<linearGradient id="paint2_linear_252_1231" x1="18.5" y1="8.99991" x2="13.7647" y2="14.7191" gradientUnits="userSpaceOnUse">
<stop stop-color="#6450ED"/>
<stop offset="1" stop-color="#6552DC"/>
</linearGradient>
<linearGradient id="paint3_linear_252_1231" x1="10.6921" y1="16.307" x2="-15.4363" y2="5.75363" gradientUnits="userSpaceOnUse">
<stop stop-color="#8772EF"/>
<stop offset="1" stop-color="#D7EEFF"/>
</linearGradient>
<linearGradient id="paint4_linear_252_1231" x1="14.3523" y1="15.6359" x2="10.9684" y2="10.2823" gradientUnits="userSpaceOnUse">
<stop stop-color="#6451DB"/>
<stop offset="1" stop-color="#8772EF" stop-opacity="0"/>
</linearGradient>
<linearGradient id="paint5_linear_252_1231" x1="17" y1="2.29787" x2="17.6436" y2="7.72977" gradientUnits="userSpaceOnUse">
<stop stop-color="#FFC500"/>
<stop offset="1" stop-color="#FFA200"/>
</linearGradient>
<clipPath id="clip0_252_1231">
<rect width="24" height="24" fill="white"/>
</clipPath>
</defs>
</svg>
