<?xml version="1.0" encoding="UTF-8"?>
<svg width="16px" height="16px" viewBox="0 0 16 16" version="1.1" xmlns="http://www.w3.org/2000/svg" xmlns:xlink="http://www.w3.org/1999/xlink">
    <title>icon16/最小化</title>
    <g id="icon16/最小化" stroke="none" stroke-width="1" fill="none" fill-rule="evenodd">
        <g id="icon16/最大化" fill="#36425A" fill-rule="nonzero">
            <path d="M13.5,2 C13.7454599,2 13.9496084,2.17687516 13.9919443,2.41012437 L14,2.5 L14,11.5 C14,11.7454599 13.8231248,11.9496084 13.5898756,11.9919443 L13.5,12 L12,12 L12,13.5 C12,13.7454599 11.8231248,13.9496084 11.5898756,13.9919443 L11.5,14 L2.5,14 C2.22385763,14 2,13.7761424 2,13.5 L2,13.5 L2,4.5 C2,4.22385763 2.22385763,4 2.5,4 L2.5,4 L4,4 L4,2.5 C4,2.25454011 4.17687516,2.05039163 4.41012437,2.00805567 L4.5,2 L13.5,2 Z M11,5 L3,5 L3,13 L11,13 L11,5 Z M13,3 L5,3 L5,4 L11.5,4 C11.7454599,4 11.9496084,4.17687516 11.9919443,4.41012437 L12,4.5 L12,11 L13,11 L13,3 Z" id="形状结合"></path>
        </g>
    </g>
</svg>