<svg width="16" height="16" viewBox="0 0 16 16" fill="none" xmlns="http://www.w3.org/2000/svg">
<path fill-rule="evenodd" clip-rule="evenodd" d="M12.1772 3.05289C12.6698 2.67411 13.3259 3.33017 12.9471 3.82283L12.8889 3.88889L8.77701 7.99998L12.8889 12.1111C13.3859 12.608 12.6922 13.3431 12.1772 12.9471L12.1111 12.8889L8.00001 8.77698L3.88892 12.8889C3.698 13.0798 3.40163 13.101 3.18728 12.9525L3.1111 12.8889C2.92018 12.698 2.89897 12.4016 3.04746 12.1872L3.1111 12.1111L7.22301 7.99998L3.1111 3.88889C2.92018 3.69796 2.89897 3.4016 3.04746 3.18724L3.1111 3.11107C3.30203 2.92015 3.59839 2.89893 3.81275 3.04743L3.88892 3.11107L8.00001 7.22298L12.1111 3.11107L12.1772 3.05289Z" fill="#B83632"/>
</svg>
