<svg xmlns="http://www.w3.org/2000/svg" width="24" height="24" viewBox="0 0 24 24">
  <path fill="#818181" fill-rule="evenodd" d="M12.0551792,4.00155475 C12.3304768,3.9799709 12.5711467,4.18564651 12.5927305,4.46094408 L12.5942602,4.50002508 L12.5942602,4.50002508 L12.594,11.481 L19.5888428,11.4813947 C19.8498284,11.4813947 20.066914,11.6821265 20.0873131,11.9423137 L20.0960787,12.0541173 C20.1176626,12.3294149 19.911987,12.5700848 19.6366894,12.5916686 C19.6236873,12.592688 19.6106504,12.5931983 19.5976084,12.5931983 L12.594,12.593 L12.5942602,19.5888428 C12.5942602,19.8498284 12.3935283,20.066914 12.1333412,20.0873131 L12.0215376,20.0960787 C11.74624,20.1176626 11.5055701,19.911987 11.4839862,19.6366894 L11.4828391,19.6171639 L11.4828391,19.6171639 L11.482,12.593 L4.5087907,12.5931983 C4.24780512,12.5931983 4.03071952,12.3924665 4.01032036,12.1322793 L4.00155475,12.0204757 C3.9799709,11.7451781 4.18564651,11.5045082 4.46094408,11.4829243 L4.48046962,11.4817772 L4.48046962,11.4817772 L11.482,11.481 L11.4824566,4.5087907 C11.4824566,4.24780512 11.6831884,4.03071952 11.9433755,4.01032036 L12.0551792,4.00155475 Z" transform="rotate(45 12.049 12.049)"/>
</svg>
