<svg xmlns="http://www.w3.org/2000/svg" width="16" height="16" viewBox="0 0 16 16">
  <g fill="none" fill-rule="evenodd">
    <rect width="16" height="16" fill="#D8D8D8" opacity="0"/>
    <path fill="#454545" fill-rule="nonzero" d="M9.05756789,2.00000442 C9.61760471,1.99845026 10.09632,2.40720512 10.1720097,2.95540851 L10.1720097,2.95540851 L10.3057911,3.85723716 L10.5153293,3.97631393 L11.4332513,3.61883294 C11.9142443,3.44843841 12.4469996,3.61808234 12.7356696,4.01885292 L12.7356696,4.01885292 L12.7978182,4.1153917 L13.8470208,5.88698721 C14.1300066,6.36833014 14.0106732,6.98127472 13.565151,7.32786689 L13.565151,7.32786689 L12.8211724,7.89384719 L12.8238915,8.00198756 L12.8211724,8.10984691 L13.5654219,8.67687226 C13.9736006,8.99149604 14.1093022,9.53671454 13.9037896,10.0032799 L13.9037896,10.0032799 L13.8502753,10.1094118 L12.7944383,11.8916821 C12.5168613,12.368083 11.929622,12.5713013 11.40983,12.3718811 L11.40983,12.3718811 L10.5180985,12.0218417 L10.3085603,12.1399954 L10.1721576,13.0505317 C10.0916014,13.6002032 9.61296977,14.0038414 9.05756789,14.0000202 L9.05756789,14.0000202 L6.94720859,14.0000202 C6.38459605,14.0032586 5.90392197,13.5940952 5.82788815,13.0434232 L5.82788815,13.0434232 L5.69595107,12.1418416 L5.48680649,12.0231983 L4.56829483,12.3813788 C4.05062458,12.5640371 3.47343494,12.3534793 3.20447147,11.8849623 L3.20447147,11.8849623 L2.15305207,10.1130319 C1.87006628,9.63168896 1.98939967,9.01874438 2.43492188,8.67215221 L2.43492188,8.67215221 L3.17780056,8.1061546 L3.17618142,7.99902054 L3.17687749,7.89015489 L2.43559618,7.32585143 C2.02182664,7.00861866 1.88752409,6.45512051 2.09896218,5.99090532 L2.09896218,5.99090532 L2.15392316,5.88551182 L3.20765283,4.10833697 C3.48522978,3.63193605 4.07246908,3.42871781 4.59226108,3.62813798 L4.59226108,3.62813798 L5.48364366,3.97723701 L5.69225876,3.85908332 L5.82791348,2.94949978 C5.90287498,2.43790707 6.32259364,2.05298528 6.82678925,2.00500445 L6.82678925,2.00500445 L6.9445232,2.00000442 Z M9.05885089,2.92302123 L6.93997685,2.92302123 C6.83829073,2.92206046 6.75455002,2.99246601 6.74109678,3.08427397 L6.74109678,3.08427397 L6.53428271,4.4755648 L6.31120203,4.58096361 C6.13043635,4.66636986 5.95657073,4.76505611 5.7910984,4.87616702 L5.7910984,4.87616702 L5.59040954,5.01092504 L4.25849232,4.48875158 C4.16249165,4.451923 4.05389733,4.48950282 4.00343824,4.57607829 L4.00343824,4.57607829 L2.94828727,6.35567552 C2.90141546,6.43500709 2.92113827,6.53495813 2.99602693,6.59237764 L2.99602693,6.59237764 L4.00164187,7.4672154 L3.96163298,7.78457868 C3.95715467,7.83767505 3.95599469,7.89656246 3.95599469,7.99902054 L3.95599469,7.99902054 L3.95746211,8.08867588 C3.95942766,8.15014366 3.96338568,8.21530655 3.96944392,8.28596438 L3.96944392,8.28596438 L3.9911346,8.53894458 L2.99780968,9.40372682 C2.92115881,9.46336287 2.90143851,9.56465432 2.94784446,9.64359572 L2.94784446,9.64359572 L4.00164187,11.4196189 C4.05112448,11.505797 4.16150127,11.5460622 4.24685679,11.5162119 L4.24685679,11.5162119 L5.59426999,10.9901143 L5.79482115,11.125309 C5.95969003,11.2364497 6.13323512,11.334783 6.31386273,11.4193973 L6.31386273,11.4193973 L6.53883707,11.5247857 L6.74177378,12.9135441 C6.75450025,13.0056975 6.83888014,13.0775241 6.9445232,13.0769436 L6.9445232,13.0769436 L9.0607567,13.0769436 C9.16218067,13.077629 9.24555479,13.0073182 9.25909357,12.9149597 L9.25909357,12.9149597 L9.46827206,11.5242213 L9.69091045,11.4190454 C9.87166677,11.3336549 10.0455193,11.234976 10.210973,11.1238653 L10.210973,11.1238653 L10.4116675,10.9890885 L11.7435988,11.5112675 C11.8395995,11.5480961 11.9481938,11.5105163 11.9985637,11.4240912 L11.9985637,11.4240912 L13.052344,9.64538726 C13.0978477,9.56566356 13.0776006,9.46632538 13.004046,9.40961947 L13.004046,9.40961947 L11.9985637,8.54201441 L12.0214352,8.28796449 C12.030117,8.1915299 12.0347126,8.09672989 12.0347126,8.00198756 C12.0347126,7.90662161 12.0300326,7.80964281 12.0215099,7.71683145 L12.0215099,7.71683145 L11.9981253,7.46217579 L13.0022632,6.59629228 C13.0789141,6.53665623 13.0986344,6.43536478 13.0520299,6.35608846 L13.0520299,6.35608846 L12.0001542,4.57988554 C11.9509325,4.49390624 11.8408171,4.45373633 11.7553654,4.48375599 L11.7553654,4.48375599 L10.4088744,5.00996669 L10.2082369,4.87468171 C10.0434079,4.76354155 9.86989073,4.66522404 9.68928323,4.58064323 L9.68928323,4.58064323 L9.46496833,4.47559369 L9.25830001,3.08648142 C9.24560225,2.99454531 9.16157411,2.92279722 9.05885089,2.92302123 L9.05885089,2.92302123 Z M7.99994801,5.69231165 C9.27444959,5.69231165 10.3076373,6.72549932 10.3076373,8.0000009 C10.3076373,9.27450248 9.27444959,10.3076901 7.99994801,10.3076901 C6.72544643,10.3076901 5.69225876,9.27450248 5.69225876,8.0000009 C5.69225876,6.72549932 6.72544643,5.69231165 7.99994801,5.69231165 Z M7.99994801,6.61538735 C7.23524706,6.61538735 6.61533446,7.23529995 6.61533446,8.0000009 C6.61533446,8.76470185 7.23524706,9.38461445 7.99994801,9.38461445 C8.76464896,9.38461445 9.38456156,8.76470185 9.38456156,8.0000009 C9.38456156,7.23529995 8.76464896,6.61538735 7.99994801,6.61538735 Z"/>
  </g>
</svg>
