<svg width="24" height="24" viewBox="0 0 24 24" fill="none" xmlns="http://www.w3.org/2000/svg">
<path fill-rule="evenodd" clip-rule="evenodd" d="M5.06348 6.5C5.06348 5.67157 5.73505 5 6.56348 5H15.5635C16.3919 5 17.0635 5.67157 17.0635 6.5V9.49219C17.0635 9.76833 16.8396 9.99219 16.5635 9.99219C16.2873 9.99219 16.0635 9.76833 16.0635 9.49219V6.5C16.0635 6.22386 15.8396 6 15.5635 6H6.56348C6.28733 6 6.06348 6.22386 6.06348 6.5V17.5C6.06348 17.7761 6.28733 18 6.56348 18H9.56348C9.83962 18 10.0635 18.2239 10.0635 18.5C10.0635 18.7761 9.83962 19 9.56348 19H6.56348C5.73505 19 5.06348 18.3284 5.06348 17.5V6.5ZM8.01587 8.5C8.01587 8.22386 8.23973 8 8.51587 8H13.4924C13.7686 8 13.9924 8.22386 13.9924 8.5C13.9924 8.77614 13.7686 9 13.4924 9H8.51587C8.23973 9 8.01587 8.77614 8.01587 8.5ZM16.3208 12.7672L18.0886 14.5349L14.5927 18.0308L12.874 17.9817L12.8249 16.2631L16.3208 12.7672ZM15.6137 12.0601C16.0042 11.6695 16.6374 11.6695 17.0279 12.0601L18.7957 13.8278C19.1862 14.2184 19.1862 14.8515 18.7957 15.2421L15.2998 18.738C15.1052 18.9325 14.8391 19.0383 14.5641 19.0304L12.8454 18.9813C12.3156 18.9662 11.8896 18.5402 11.8744 18.0103L11.8253 16.2916C11.8174 16.0166 11.9232 15.7505 12.1178 15.556L15.6137 12.0601Z" fill="#6D7582"/>
</svg>
